#!OML:ASF I:\Actors\actors\Patient Classification 1\Patient 1\Session 1\Subject1.ASF
:FULLY-SPECIFIED
:DEGREES
345
root -0.561631 17.5306 7.39308 5.36621 -5.70792 -8.35861
lowerback 3.1529 1.21589 4.91242
upperback -6.74135 2.04718 0.5512
thorax -8.73798 0.689627 -2.38086
lowerneck -14.029 -1.37281 1.0863
upperneck 33.6484 -2.67916 0.773512
head 13.7413 -0.944377 -0.306792
rclavicle -1.46107e-014 -1.98785e-014
rhumerus -34.4008 42.8424 -111.215
rradius 100.701
rwrist -20.9023
rhand -27.5339 -73.8269
rfingers 7.12502
rthumb -0.935749 -616.195
lclavicle -1.46107e-014 -1.98785e-014
lhumerus -44.1663 -30.4106 107.168
lradius 97.0781
lwrist 14.2498
lhand -30.863 -14.0448
lfingers 7.12502
lthumb -4.15086 15.8945
rfemur -1.40858 22.7701 27.092
rtibia 3.86651
rfoot -10.2601 -17.0533
rtoes -0.644401
lfemur 10.4735 -38.9179 -17.2474
ltibia -4.13459
lfoot -22.3779 52.0234
ltoes 15.3044
346
root -0.559789 17.5319 7.38881 5.32194 -5.76539 -8.26429
lowerback 3.24106 1.22123 4.73369
upperback -6.84788 2.04885 0.537343
thorax -8.91074 0.695696 -2.3
lowerneck -13.9684 -1.41666 1.26068
upperneck 33.5927 -2.71543 0.548132
head 13.6955 -0.970332 -0.431774
rclavicle -2.98177e-016 -5.56597e-015
rhumerus -33.3486 42.1443 -109.661
rradius 102.31
rwrist -27.2436
rhand -26.7615 -75.247
rfingers 7.12502
rthumb -0.189694 -614.773
lclavicle -2.98177e-016 -5.56597e-015
lhumerus -44.1723 -30.3152 107.165
lradius 97.2403
lwrist 14.4078
lhand -30.8029 -14.3289
lfingers 7.12502
lthumb -4.09279 15.6116
rfemur -1.4022 22.9365 26.9835
rtibia 3.89408
rfoot -10.3083 -17.1487
rtoes -0.343594
lfemur 10.5911 -39.0961 -17.4578
ltibia -4.15657
lfoot -22.6201 52.1622
ltoes 15.6073
347
root -0.556223 17.5326 7.37268 5.25014 -5.8458 -8.123
lowerback 3.55616 1.24079 4.48126
upperback -6.983 2.07775 0.526673
thorax -9.25046 0.71593 -2.18471
lowerneck -14.0134 -1.5011 1.27077
upperneck 33.7093 -2.81691 0.454701
head 13.7541 -1.02462 -0.488088
rclavicle 4.96962e-015 6.36111e-015
rhumerus -32.2789 40.83 -107.979
rradius 104.105
rwrist -32.8781
rhand -26.1454 -76.1618
rfingers 7.12502
rthumb 0.405315 -613.859
lclavicle 4.96962e-015 6.36111e-015
lhumerus -44.0908 -30.2564 107.171
lradius 97.3431
lwrist 14.4684
lhand -30.8153 -14.8432
lfingers 7.12502
lthumb -4.10479 15.097
rfemur -1.50846 23.1791 26.7839
rtibia 4.04085
rfoot -10.3183 -17.3344
rtoes -0.348264
lfemur 10.5563 -39.247 -17.6169
ltibia -4.07098
lfoot -22.8245 52.2958
ltoes 15.8379
348
root -0.558226 17.5285 7.38563 4.97329 -5.43257 -7.62731
lowerback 3.53101 1.11825 3.86612
upperback -6.97226 1.85375 0.438056
thorax -9.24852 0.646967 -1.90978
lowerneck -14.0547 -1.59017 1.18002
upperneck 33.795 -2.961 0.551342
head 13.8045 -1.08448 -0.457468
rclavicle -2.28602e-015 -1.90833e-014
rhumerus -31.1718 39.404 -106.118
rradius 105.98
rwrist -37.2236
rhand -25.875 -76.6917
rfingers 7.12502
rthumb 0.666479 -613.33
lclavicle -2.28602e-015 -1.90833e-014
lhumerus -43.9013 -30.2375 107.137
lradius 97.3733
lwrist 14.399
lhand -30.9732 -15.4693
lfingers 7.12502
lthumb -4.25723 14.4679
rfemur -0.985696 22.88 26.3914
rtibia 3.71556
rfoot -10.3083 -17.5335
rtoes -0.571737
lfemur 10.7245 -39.0542 -18.3186
ltibia -3.98388
lfoot -21.957 51.8667
ltoes 14.8865
349
root -0.553975 17.5311 7.39432 5.0399 -5.26601 -8.04012
lowerback 3.33788 1.08753 4.24061
upperback -7.03128 1.84482 0.568899
thorax -9.19629 0.622036 -1.97475
lowerneck -14.0838 -1.65308 1.04456
upperneck 33.8283 -3.08415 0.741641
head 13.8325 -1.1288 -0.377772
rclavicle 4.37326e-015 -6.36111e-015
rhumerus -29.6435 38.6933 -103.704
rradius 107.685
rwrist -40.0954
rhand -25.5428 -76.9775
rfingers 7.12502
rthumb 0.987278 -613.045
lclavicle 4.37326e-015 -6.36111e-015
lhumerus -43.6826 -30.1764 107.02
lradius 97.4384
lwrist 14.2225
lhand -30.9461 -15.4912
lfingers 7.12502
lthumb -4.23108 14.4465
rfemur -0.943063 22.7649 26.8793
rtibia 3.69968
rfoot -10.3323 -17.5179
rtoes -0.668634
lfemur 10.8195 -39.187 -17.8947
ltibia -4.13595
lfoot -21.9722 51.9158
ltoes 14.9445
350
root -0.549501 17.5328 7.39869 5.10953 -5.14516 -8.37902
lowerback 3.06419 1.02449 4.58343
upperback -7.03071 1.77767 0.655334
thorax -9.03404 0.57262 -2.06037
lowerneck -14.1047 -1.63462 1.0448
upperneck 33.8341 -3.09424 0.842214
head 13.8425 -1.11946 -0.339596
rclavicle -4.57205e-015 5.56597e-015
rhumerus -27.7808 37.9921 -101.041
rradius 109.149
rwrist -41.4851
rhand -24.8042 -76.9522
rfingers 7.12502
rthumb 1.70071 -613.075
lclavicle -4.57205e-015 5.56597e-015
lhumerus -43.4144 -30.0756 106.714
lradius 97.5489
lwrist 14.1594
lhand -30.8086 -15.2415
lfingers 7.12502
lthumb -4.09835 14.6989
rfemur -0.992513 22.7835 27.256
rtibia 3.78707
rfoot -10.4547 -17.5808
rtoes -0.456292
lfemur 10.8437 -39.2949 -17.5038
ltibia -4.26849
lfoot -21.8564 52.0017
ltoes 14.8802
351
root -0.546919 17.5318 7.40033 5.07765 -4.93785 -8.32436
lowerback 2.90469 0.888889 4.4782
upperback -7.03482 1.57853 0.665012
thorax -8.95942 0.484739 -1.96717
lowerneck -14.0715 -1.54608 1.22421
upperneck 33.8554 -2.97923 0.734307
head 13.8391 -1.06159 -0.39584
rclavicle -1.3418e-014 -1.59028e-015
rhumerus -25.9777 37.0148 -98.3422
rradius 110.506
rwrist -42.1827
rhand -24.1769 -77.0379
rfingers 7.12502
rthumb 2.30647 -612.995
lclavicle -1.3418e-014 -1.59028e-015
lhumerus -43.2644 -29.8847 106.407
lradius 97.6923
lwrist 14.1804
lhand -30.7314 -15.2267
lfingers 7.12502
lthumb -4.02379 14.715
rfemur -0.942334 22.7933 27.214
rtibia 3.80467
rfoot -10.5999 -17.7751
rtoes -0.359051
lfemur 10.7255 -39.1537 -17.4714
ltibia -4.23229
lfoot -21.359 51.7549
ltoes 14.3324
352
root -0.54448 17.533 7.39851 4.99215 -4.66134 -8.28778
lowerback 2.9555 0.732383 4.35317
upperback -7.08671 1.36711 0.715934
thorax -9.06372 0.388969 -1.82289
lowerneck -14.0282 -1.48852 1.32564
upperneck 33.9506 -2.89098 0.631563
head 13.868 -1.02371 -0.441061
rclavicle -1.98785e-016 1.19271e-014
rhumerus -24.1747 35.9605 -95.4092
rradius 111.862
rwrist -42.9072
rhand -23.5972 -77.4918
rfingers 7.12502
rthumb 2.86641 -612.548
lclavicle -1.98785e-016 1.19271e-014
lhumerus -43.25 -29.6696 106.221
lradius 97.8161
lwrist 14.1409
lhand -30.696 -15.2977
lfingers 7.12502
lthumb -3.98959 14.6447
rfemur -0.814915 22.7416 27.22
rtibia 3.7735
rfoot -10.6585 -17.9956
rtoes -0.424965
lfemur 10.6186 -39.0211 -17.4232
ltibia -4.15132
lfoot -20.9334 51.416
ltoes 13.8617
353
root -0.53897 17.5333 7.40438 4.84939 -4.47252 -8.18904
lowerback 2.96407 0.600175 4.20665
upperback -7.10997 1.18153 0.745974
thorax -9.10819 0.30847 -1.68997
lowerneck -13.984 -1.45781 1.32205
upperneck 34.0495 -2.85562 0.651848
head 13.903 -1.00563 -0.427078
rclavicle 1.19271e-015 -3.02153e-014
rhumerus -22.3129 34.8498 -92.3578
rradius 113.081
rwrist -43.6479
rhand -22.8872 -77.7862
rfingers 7.12502
rthumb 3.55207 -612.264
lclavicle 1.19271e-015 -3.02153e-014
lhumerus -43.2868 -29.509 106.044
lradius 97.915
lwrist 14.1585
lhand -30.7841 -15.361
lfingers 7.12502
lthumb -4.07462 14.5798
rfemur -0.566799 22.6554 27.1637
rtibia 3.67419
rfoot -10.6702 -18.1235
rtoes -0.356442
lfemur 10.9125 -39.2906 -17.794
ltibia -4.19746
lfoot -20.8281 51.548
ltoes 13.7168
354
root -0.532268 17.5333 7.40635 4.84096 -4.42072 -8.21924
lowerback 2.93789 0.521331 4.17511
upperback -7.18147 1.07828 0.804729
thorax -9.17933 0.260197 -1.59895
lowerneck -13.9396 -1.41314 1.39561
upperneck 34.1554 -2.81393 0.647459
head 13.9395 -0.978008 -0.435503
rclavicle -5.66536e-015 4.29375e-014
rhumerus -20.7262 33.4512 -89.4856
rradius 114.041
rwrist -44.2276
rhand -22.2167 -77.4008
rfingers 7.12502
rthumb 4.19952 -612.661
lclavicle -5.66536e-015 4.29375e-014
lhumerus -43.3513 -29.4422 105.855
lradius 98.038
lwrist 14.3609
lhand -30.787 -15.3917
lfingers 7.12502
lthumb -4.0775 14.549
rfemur -0.579329 22.7416 27.1747
rtibia 3.73354
rfoot -10.689 -18.259
rtoes -0.238355
lfemur 11.0763 -39.6243 -17.9048
ltibia -4.30677
lfoot -20.9377 51.8345
ltoes 13.9491
355
root -0.529482 17.5353 7.39692 4.94763 -4.28742 -8.4374
lowerback 2.96626 0.455984 4.27238
upperback -7.29399 1.01126 0.908309
thorax -9.32638 0.220328 -1.53667
lowerneck -13.9264 -1.38871 1.43964
upperneck 34.3073 -2.81721 0.70569
head 14.0056 -0.963827 -0.421245
rclavicle -2.08724e-015 2.46493e-014
rhumerus -19.8496 31.4573 -87.0402
rradius 114.881
rwrist -44.198
rhand -21.5764 -76.6917
rfingers 7.12502
rthumb 4.81779 -613.383
lclavicle -2.08724e-015 2.46493e-014
lhumerus -43.39 -29.5285 105.688
lradius 98.1699
lwrist 14.5721
lhand -30.5247 -15.2796
lfingers 7.12502
lthumb -3.82411 14.6658
rfemur -0.82894 22.9087 27.3639
rtibia 3.92099
rfoot -10.7393 -18.5088
rtoes -0.11492
lfemur 10.7239 -39.4826 -17.3099
ltibia -4.35869
lfoot -20.6503 51.5933
ltoes 13.9153
